<?xml version="1.0" encoding="utf-8" standalone="no"?>
<!DOCTYPE svg PUBLIC "-//W3C//DTD SVG 1.1//EN"
  "http://www.w3.org/Graphics/SVG/1.1/DTD/svg11.dtd">
<svg xmlns:xlink="http://www.w3.org/1999/xlink" width="720pt" height="720pt" viewBox="0 0 720 720" xmlns="http://www.w3.org/2000/svg" version="1.1">
 <metadata>
  <rdf:RDF xmlns:dc="http://purl.org/dc/elements/1.1/" xmlns:cc="http://creativecommons.org/ns#" xmlns:rdf="http://www.w3.org/1999/02/22-rdf-syntax-ns#">
   <cc:Work>
    <dc:type rdf:resource="http://purl.org/dc/dcmitype/StillImage"/>
    <dc:date>2025-12-09T11:06:33.230406</dc:date>
    <dc:format>image/svg+xml</dc:format>
    <dc:creator>
     <cc:Agent>
      <dc:title>Matplotlib v3.10.6, https://matplotlib.org/</dc:title>
     </cc:Agent>
    </dc:creator>
   </cc:Work>
  </rdf:RDF>
 </metadata>
 <defs>
  <style type="text/css">*{stroke-linejoin: round; stroke-linecap: butt}</style>
 </defs>
 <g id="figure_1">
  <g id="patch_1">
   <path d="M 0 720 
L 720 720 
L 720 0 
L 0 0 
z
" style="fill: #ffffff"/>
  </g>
  <g id="axes_1">
   <g id="PatchCollection_1">
    <path d="M 100.566948 292.985514 
L 97.968974 300.777956 
L 91.844233 295.893638 
z
" clip-path="url(#pb438160fb5)" style="fill: #1f77b4; fill-opacity: 0.9; stroke: #000000; stroke-opacity: 0.9; stroke-width: 0.5"/>
    <path d="M 100.566949 292.985512 
L 91.844231 295.893636 
L 91.770761 295.835046 
L 82.577763 286.868449 
L 74.323233 277.031083 
L 73.301759 275.532856 
L 80.991314 267.843302 
L 82.031968 266.802648 
L 121.968614 228.792695 
z
" clip-path="url(#pb438160fb5)" style="fill: #1f77b4; fill-opacity: 0.9; stroke: #000000; stroke-opacity: 0.9; stroke-width: 0.5"/>
    <path d="M 82.031909 266.802704 
L 73.301758 275.532855 
L 73.12761 275.277426 
z
" clip-path="url(#pb438160fb5)" style="fill: #1f77b4; fill-opacity: 0.9; stroke: #000000; stroke-opacity: 0.9; stroke-width: 0.5"/>
    <path d="M 82.031966 266.802646 
L 73.127609 275.277425 
L 67.089207 266.420715 
L 60.947579 255.142796 
L 55.959389 243.30941 
L 52.174211 231.038164 
L 49.629664 218.451015 
L 48.351036 205.673059 
L 48.351036 201.040799 
L 122.932235 225.902378 
L 105.691905 243.142708 
z
" clip-path="url(#pb438160fb5)" style="fill: #1f77b4; fill-opacity: 0.9; stroke: #000000; stroke-opacity: 0.9; stroke-width: 0.5"/>
    <path d="M 122.932233 225.902375 
L 48.351036 201.040797 
L 48.351036 192.831289 
L 49.629664 180.053333 
L 52.174211 167.466184 
L 55.078987 158.049129 
L 116.758744 219.728885 
z
" clip-path="url(#pb438160fb5)" style="fill: #1f77b4; fill-opacity: 0.9; stroke: #000000; stroke-opacity: 0.9; stroke-width: 0.5"/>
    <path d="M 116.758743 219.728882 
L 55.078988 158.049127 
L 55.959389 155.194938 
L 59.478886 146.845703 
L 116.758785 204.127324 
z
" clip-path="url(#pb438160fb5)" style="fill: #1f77b4; fill-opacity: 0.9; stroke: #000000; stroke-opacity: 0.9; stroke-width: 0.5"/>
    <path d="M 116.758785 204.127321 
L 59.478887 146.845701 
L 60.947579 143.361552 
L 67.089207 132.083633 
L 74.323233 121.473265 
L 82.577763 111.635899 
L 84.123444 110.128285 
L 116.758947 142.76477 
z
" clip-path="url(#pb438160fb5)" style="fill: #1f77b4; fill-opacity: 0.9; stroke: #000000; stroke-opacity: 0.9; stroke-width: 0.5"/>
    <path d="M 116.758947 142.764767 
L 84.123445 110.128283 
L 91.770761 102.669302 
L 101.810861 94.66259 
L 112.59828 87.695335 
L 116.759099 85.562208 
z
" clip-path="url(#pb438160fb5)" style="fill: #1f77b4; fill-opacity: 0.9; stroke: #000000; stroke-opacity: 0.9; stroke-width: 0.5"/>
    <path d="M 116.758949 142.764769 
L 116.759101 85.562207 
L 124.025809 81.836783 
L 135.979875 77.145158 
L 148.341674 73.667087 
L 160.988349 71.437137 
L 173.79421 70.47747 
L 186.631989 70.797625 
L 199.374096 72.394418 
L 211.893896 75.25198 
L 224.06696 79.341913 
L 233.852939 83.757514 
L 225.693035 87.004626 
L 132.858821 87.004443 
L 132.858821 87.004443 
L 132.858821 87.004443 
L 132.858821 87.004443 
L 132.858821 87.004443 
L 132.85882 87.004444 
L 132.85882 87.004444 
L 132.85882 87.004444 
L 132.85882 87.004444 
L 132.85882 87.004444 
L 132.85882 87.004444 
L 132.85882 87.004444 
L 132.85882 87.004444 
L 132.85882 87.004444 
L 132.85882 87.004444 
L 132.85882 87.004444 
L 132.85882 87.004444 
L 132.858734 119.388233 
L 132.858734 119.388233 
L 132.858734 119.388233 
L 132.858734 119.388233 
L 132.858734 119.388233 
L 132.858734 119.388233 
L 132.858734 119.388233 
L 132.858734 119.388234 
L 132.858734 119.388234 
L 132.858734 119.388234 
L 132.858734 119.388234 
L 132.858735 119.388234 
L 132.858735 119.388234 
L 132.858735 119.388234 
L 132.858735 119.388234 
L 132.858735 119.388234 
L 132.858735 119.388234 
L 185.503855 119.388416 
L 185.50377 151.772203 
L 132.858993 151.77202 
L 132.858993 151.77202 
L 132.858993 151.77202 
L 132.858992 151.77202 
L 132.858992 151.77202 
L 132.858992 151.77202 
L 132.858992 151.772021 
L 132.858992 151.772021 
L 132.858992 151.772021 
L 132.858992 151.772021 
L 132.858992 151.772021 
L 132.858992 151.772021 
L 132.858992 151.772021 
L 132.858992 151.772021 
L 132.858992 151.772021 
L 132.858992 151.772021 
L 132.858992 151.772021 
L 132.858906 184.15581 
L 132.858906 184.15581 
L 132.858906 184.15581 
L 132.858906 184.15581 
L 132.858906 184.15581 
L 132.858906 184.15581 
L 132.858906 184.15581 
L 132.858906 184.15581 
L 132.858906 184.155811 
L 132.858906 184.155811 
L 132.858906 184.155811 
L 132.858906 184.155811 
L 132.858906 184.155811 
L 132.858907 184.155811 
L 132.858907 184.155811 
L 132.858907 184.155811 
L 132.858907 184.155811 
L 162.236031 184.15589 
L 126.656527 219.735393 
L 126.656527 219.735394 
L 126.656527 219.735394 
L 126.656527 219.735394 
L 126.656527 219.735394 
L 126.656527 219.735394 
L 126.656527 219.735394 
L 126.656527 219.735394 
L 126.656527 219.735394 
L 126.656527 219.735394 
L 126.656527 219.735394 
L 126.656527 219.735394 
L 126.656527 219.735395 
L 126.656527 219.735395 
L 126.656527 219.735395 
L 126.656527 219.735395 
L 126.656527 219.735395 
L 127.877873 220.95674 
L 122.932237 225.902376 
L 116.758745 219.728884 
z
" clip-path="url(#pb438160fb5)" style="fill: #1f77b4; fill-opacity: 0.9; stroke: #000000; stroke-opacity: 0.9; stroke-width: 0.5"/>
    <path d="M 128.606897 220.227716 
L 127.877874 220.956739 
L 126.65653 219.735394 
L 162.236034 184.155889 
L 162.236034 184.155889 
L 162.236034 184.155889 
L 237.893467 108.498457 
L 237.893467 108.498457 
L 237.893467 108.498457 
L 237.893467 108.498457 
L 237.893467 108.498457 
L 237.893467 108.498457 
L 237.893467 108.498457 
L 237.893467 108.498456 
L 237.893467 108.498456 
L 237.893467 85.848218 
L 240.315497 87.246578 
L 240.315497 216.367195 
L 240.315498 216.367195 
L 240.315498 216.367195 
L 240.315498 216.367195 
L 240.315498 216.367195 
L 240.315498 216.367196 
L 240.315498 216.367196 
L 240.315498 216.367196 
L 240.315498 216.367196 
L 240.315498 216.367196 
L 240.315498 216.367196 
L 240.315498 216.367196 
L 240.315498 216.367196 
L 240.315498 216.367196 
L 240.315498 216.367196 
L 240.315498 216.367196 
L 240.315499 216.367196 
L 266.627327 216.367196 
L 266.627327 216.367196 
L 266.627327 216.367196 
L 266.627327 216.367196 
L 266.627327 216.367196 
L 266.627327 216.367196 
L 266.627327 216.367196 
L 266.627327 216.367196 
L 266.627327 216.367196 
L 266.627327 216.367196 
L 266.627327 216.367196 
L 266.627328 216.367196 
L 266.627328 216.367195 
L 266.627328 216.367195 
L 266.627328 216.367195 
L 266.627328 216.367195 
L 266.627328 216.367195 
L 266.627328 106.754229 
L 266.948846 107.037971 
L 275.683468 116.451654 
L 283.437385 126.688246 
L 290.133536 137.646011 
L 295.705371 149.216046 
L 300.097515 161.283362 
L 303.266316 173.72803 
L 303.316667 174.062085 
L 270.92085 206.348971 
L 270.92085 206.348971 
L 270.92085 206.348971 
L 270.92085 206.348971 
L 270.92085 206.348971 
L 270.92085 206.348971 
L 270.92085 206.348971 
L 270.92085 206.348971 
L 270.92085 206.348972 
L 270.92085 206.348972 
L 270.92085 206.348972 
L 270.92085 206.348972 
L 270.92085 206.348972 
L 270.92085 206.348972 
L 270.92085 206.348972 
L 270.92085 206.348972 
L 270.92085 206.348972 
L 270.92085 206.348972 
L 270.92085 206.348972 
L 270.92085 206.348972 
L 270.920851 206.348973 
L 270.920851 206.348973 
L 270.920851 206.348973 
L 270.920851 206.348973 
L 270.920851 206.348973 
L 270.920851 206.348973 
L 270.920851 206.348973 
L 270.920851 206.348973 
L 270.920851 206.348973 
L 270.920851 206.348972 
L 270.920852 206.348972 
L 270.920852 206.348972 
L 270.920852 206.348972 
L 303.316668 174.062087 
L 305.180283 186.426367 
L 305.820392 199.252174 
L 305.180283 212.07798 
L 304.13887 218.987304 
L 286.663773 236.403641 
L 286.663773 236.403641 
L 286.663773 236.403641 
L 286.663773 236.403641 
L 286.663773 236.403642 
L 286.663773 236.403642 
L 286.663773 236.403642 
L 286.663773 236.403642 
L 286.663773 236.403642 
L 286.663773 236.403642 
L 286.663773 236.403642 
L 286.663773 236.403642 
L 286.663773 236.403642 
L 286.663773 236.403642 
L 286.663773 236.403642 
L 286.663773 236.403643 
L 286.663773 236.403643 
L 286.663773 236.403643 
L 286.663773 236.403643 
L 286.663773 236.403643 
L 286.663773 236.403643 
L 286.663773 236.403643 
L 286.663773 236.403643 
L 286.663773 236.403643 
L 286.663774 236.403643 
L 286.663774 236.403643 
L 286.663774 236.403643 
L 286.663774 236.403643 
L 286.663774 236.403643 
L 286.663774 236.403643 
L 286.663774 236.403643 
L 286.663774 236.403643 
L 286.663774 236.403643 
L 304.138869 218.987307 
L 303.266316 224.776318 
L 300.097515 237.220986 
L 295.705371 249.288302 
L 290.133536 260.858337 
L 283.437385 271.816102 
L 275.683468 282.052694 
L 266.948846 291.466377 
L 257.320329 299.963594 
L 246.893608 307.459896 
L 235.772309 313.880781 
L 224.06696 319.162435 
L 211.893896 323.252367 
L 199.374096 326.10993 
L 186.631989 327.706723 
L 173.79421 328.026877 
L 160.988349 327.067211 
L 156.685943 326.308581 
L 229.983901 253.010622 
L 229.983901 253.010622 
L 229.983901 253.010622 
L 229.983901 253.010622 
L 229.983901 253.010622 
L 229.983901 253.010621 
L 229.983901 253.010621 
L 229.983901 253.010621 
L 229.983901 253.010621 
L 229.983901 253.010621 
L 229.983901 253.010621 
L 229.983901 253.010621 
L 229.983901 253.010621 
L 229.983901 253.010621 
L 229.983901 253.010621 
L 229.983901 253.010621 
L 229.983901 253.01062 
L 207.621795 230.648515 
L 207.621795 230.648515 
L 207.621795 230.648514 
L 207.621795 230.648514 
L 207.621795 230.648514 
L 207.621795 230.648514 
L 207.621795 230.648514 
L 207.621795 230.648514 
L 207.621795 230.648514 
L 207.621794 230.648514 
L 207.621794 230.648514 
L 207.621794 230.648514 
L 207.621794 230.648514 
L 207.621794 230.648514 
L 207.621794 230.648514 
L 207.621794 230.648515 
L 207.621794 230.648515 
L 173.318384 264.951924 
L 173.318384 220.227716 
L 218.042595 220.227716 
L 218.042595 220.227716 
L 218.042595 220.227716 
L 218.042596 220.227716 
L 218.042596 220.227716 
L 218.042596 220.227716 
L 218.042596 220.227716 
L 218.042596 220.227715 
L 218.042596 220.227715 
L 218.042596 220.227715 
L 218.042596 220.227715 
L 218.042596 220.227715 
L 218.042596 220.227715 
L 218.042596 220.227715 
L 218.042596 220.227715 
L 218.042596 220.227715 
L 218.042596 220.227715 
L 218.042596 220.227715 
L 218.042596 220.227714 
L 218.042596 220.227714 
L 218.042596 220.227714 
L 218.042596 220.227714 
L 218.042596 220.227714 
L 218.042596 220.227714 
L 218.042596 220.227714 
L 218.042596 220.227714 
L 218.042596 220.227714 
L 218.042596 220.227714 
L 218.042596 220.227714 
L 218.042596 220.227714 
L 218.042595 220.227714 
L 218.042595 220.227714 
L 218.042595 220.227714 
L 173.318384 220.227714 
L 173.318384 175.503503 
L 173.318384 175.503503 
L 173.318384 175.503503 
L 173.318384 175.503503 
L 173.318384 175.503502 
L 173.318384 175.503502 
L 173.318384 175.503502 
L 173.318384 175.503502 
L 173.318384 175.503502 
L 173.318384 175.503502 
L 173.318384 175.503502 
L 173.318384 175.503502 
L 173.318384 175.503502 
L 173.318384 175.503502 
L 173.318384 175.503502 
L 173.318384 175.503502 
L 173.318383 175.503502 
L 173.318383 175.503502 
L 173.318383 175.503502 
L 173.318383 175.503502 
L 173.318383 175.503502 
L 173.318383 175.503502 
L 173.318383 175.503502 
L 173.318383 175.503502 
L 173.318383 175.503502 
L 173.318383 175.503502 
L 173.318383 175.503502 
L 173.318383 175.503502 
L 173.318383 175.503502 
L 173.318382 175.503503 
L 173.318382 175.503503 
L 173.318382 175.503503 
L 173.318382 175.503503 
L 173.318382 220.227714 
L 128.606902 220.227714 
L 152.637716 196.1969 
L 152.637716 196.1969 
L 152.637716 196.1969 
L 152.637716 196.1969 
L 152.637716 196.1969 
L 152.637716 196.1969 
L 152.637716 196.196899 
L 152.637716 196.196899 
L 152.637716 196.196899 
L 152.637716 196.196899 
L 152.637716 196.196899 
L 152.637716 196.196899 
L 152.637716 196.196899 
L 152.637716 196.196899 
L 152.637716 196.196899 
L 152.637716 196.196899 
L 152.637716 196.196899 
L 152.637716 196.196898 
L 152.637716 196.196898 
L 152.637716 196.196898 
L 152.637715 196.196898 
L 152.637715 196.196898 
L 152.637715 196.196898 
L 152.637715 196.196898 
L 152.637715 196.196898 
L 152.637715 196.196898 
L 152.637715 196.196898 
L 152.637715 196.196898 
L 152.637715 196.196898 
L 152.637715 196.196898 
L 152.637715 196.196898 
L 152.637714 196.196898 
L 152.637714 196.196899 
L 144.892621 203.941992 
L 128.606899 220.227714 
L 128.594172 220.227714 
L 128.594172 220.227714 
L 128.594171 220.227714 
L 128.594171 220.227714 
L 128.594171 220.227714 
L 128.594171 220.227714 
L 128.594171 220.227714 
L 128.594171 220.227714 
L 128.594171 220.227714 
L 128.594171 220.227714 
L 128.594171 220.227714 
L 128.594171 220.227714 
L 128.594171 220.227714 
L 128.594171 220.227714 
L 128.594171 220.227714 
L 128.594171 220.227715 
L 128.594171 220.227715 
L 128.594171 220.227715 
L 128.594171 220.227715 
L 128.594171 220.227715 
L 128.594171 220.227715 
L 128.594171 220.227715 
L 128.594171 220.227715 
L 128.594171 220.227715 
L 128.594171 220.227715 
L 128.594171 220.227715 
L 128.594171 220.227716 
L 128.594171 220.227716 
L 128.594171 220.227716 
L 128.594171 220.227716 
L 128.594171 220.227716 
L 128.594172 220.227716 
L 128.594172 220.227716 
z
" clip-path="url(#pb438160fb5)" style="fill: #1f77b4; fill-opacity: 0.9; stroke: #000000; stroke-opacity: 0.9; stroke-width: 0.5"/>
    <path d="M 127.877876 220.95674 
L 128.6069 220.227716 
L 173.318382 220.227716 
L 173.318382 264.951926 
L 172.595722 265.674587 
z
" clip-path="url(#pb438160fb5)" style="fill: #1f77b4; fill-opacity: 0.9; stroke: #000000; stroke-opacity: 0.9; stroke-width: 0.5"/>
    <path d="M 122.932239 225.902377 
L 127.877874 220.956742 
L 172.595721 265.674588 
L 167.650085 270.620224 
z
" clip-path="url(#pb438160fb5)" style="fill: #1f77b4; fill-opacity: 0.9; stroke: #000000; stroke-opacity: 0.9; stroke-width: 0.5"/>
    <path d="M 167.430177 270.840134 
L 207.621795 230.648517 
L 229.983899 253.010621 
L 156.68594 326.30858 
L 148.341674 324.837261 
L 135.979875 321.35919 
L 124.025809 316.667565 
L 122.423964 315.846347 
z
" clip-path="url(#pb438160fb5)" style="fill: #1f77b4; fill-opacity: 0.9; stroke: #000000; stroke-opacity: 0.9; stroke-width: 0.5"/>
    <path d="M 167.430175 270.840133 
L 122.423963 315.846346 
L 112.59828 310.809012 
L 101.810861 303.841758 
L 97.968976 300.777957 
L 100.56695 292.985514 
L 167.320238 270.730196 
z
" clip-path="url(#pb438160fb5)" style="fill: #1f77b4; fill-opacity: 0.9; stroke: #000000; stroke-opacity: 0.9; stroke-width: 0.5"/>
    <path d="M 82.032026 266.80259 
L 122.932235 225.902381 
L 121.968616 228.792691 
z
" clip-path="url(#pb438160fb5)" style="fill: #1f77b4; fill-opacity: 0.9; stroke: #000000; stroke-opacity: 0.9; stroke-width: 0.5"/>
    <path d="M 123.71787 227.127827 
L 123.71787 227.127827 
L 123.71787 227.127827 
L 123.71787 227.127827 
L 121.968619 228.792688 
L 122.932238 225.902379 
L 167.650083 270.620224 
L 167.320238 270.730194 
L 123.717871 227.127827 
L 123.717871 227.127827 
L 123.717871 227.127827 
L 123.717871 227.127827 
L 123.717871 227.127827 
L 123.717871 227.127827 
L 123.717871 227.127826 
L 123.717871 227.127826 
L 123.717871 227.127826 
L 123.717871 227.127826 
L 123.717871 227.127826 
L 123.71787 227.127826 
L 123.71787 227.127827 
z
" clip-path="url(#pb438160fb5)" style="fill: #1f77b4; fill-opacity: 0.9; stroke: #000000; stroke-opacity: 0.9; stroke-width: 0.5"/>
    <path d="M 100.566951 292.985511 
L 121.968617 228.792692 
L 123.717871 227.127829 
L 167.320236 270.730194 
z
" clip-path="url(#pb438160fb5)" style="fill: #1f77b4; fill-opacity: 0.9; stroke: #000000; stroke-opacity: 0.9; stroke-width: 0.5"/>
    <path d="M 246.893608 91.044452 
L 257.320329 98.540754 
L 266.627326 106.754227 
L 266.627326 216.367194 
L 240.3155 216.367194 
L 240.3155 87.246579 
z
" clip-path="url(#pb438160fb5)" style="fill: #1f77b4; fill-opacity: 0.9; stroke: #000000; stroke-opacity: 0.9; stroke-width: 0.5"/>
    <path d="M 132.858822 87.004445 
L 225.693035 87.004628 
L 225.693036 87.004628 
L 225.693036 87.004628 
L 225.693036 87.004628 
L 225.693036 87.004628 
L 233.852942 83.757516 
L 235.772309 84.623567 
L 237.893465 85.848217 
L 237.893465 108.498456 
L 162.236033 184.155888 
L 132.858908 184.155809 
L 132.858994 151.772022 
L 185.503771 151.772205 
L 185.503771 151.772205 
L 185.503771 151.772205 
L 185.503771 151.772205 
L 185.503771 151.772205 
L 185.503771 151.772205 
L 185.503771 151.772205 
L 185.503771 151.772205 
L 185.503771 151.772205 
L 185.503771 151.772205 
L 185.503771 151.772204 
L 185.503771 151.772204 
L 185.503772 151.772204 
L 185.503772 151.772204 
L 185.503772 151.772204 
L 185.503772 151.772204 
L 185.503772 151.772204 
L 185.503857 119.388415 
L 185.503857 119.388415 
L 185.503857 119.388415 
L 185.503857 119.388415 
L 185.503857 119.388415 
L 185.503857 119.388415 
L 185.503857 119.388415 
L 185.503857 119.388415 
L 185.503857 119.388415 
L 185.503857 119.388415 
L 185.503857 119.388415 
L 185.503857 119.388415 
L 185.503857 119.388415 
L 185.503857 119.388414 
L 185.503857 119.388414 
L 185.503857 119.388414 
L 185.503856 119.388414 
L 132.858736 119.388232 
z
" clip-path="url(#pb438160fb5)" style="fill: #1f77b4; fill-opacity: 0.9; stroke: #000000; stroke-opacity: 0.9; stroke-width: 0.5"/>
   </g>
   <g id="text_1">
    <!-- Full Layout (Chunk Coloring) -->
    <g transform="translate(77.834464 37.6) scale(0.14 -0.14)">
     <defs>
      <path id="DejaVuSans-46" d="M 628 4666 
L 3309 4666 
L 3309 4134 
L 1259 4134 
L 1259 2759 
L 3109 2759 
L 3109 2228 
L 1259 2228 
L 1259 0 
L 628 0 
L 628 4666 
z
" transform="scale(0.015625)"/>
      <path id="DejaVuSans-75" d="M 544 1381 
L 544 3500 
L 1119 3500 
L 1119 1403 
Q 1119 906 1312 657 
Q 1506 409 1894 409 
Q 2359 409 2629 706 
Q 2900 1003 2900 1516 
L 2900 3500 
L 3475 3500 
L 3475 0 
L 2900 0 
L 2900 538 
Q 2691 219 2414 64 
Q 2138 -91 1772 -91 
Q 1169 -91 856 284 
Q 544 659 544 1381 
z
M 1991 3584 
L 1991 3584 
z
" transform="scale(0.015625)"/>
      <path id="DejaVuSans-6c" d="M 603 4863 
L 1178 4863 
L 1178 0 
L 603 0 
L 603 4863 
z
" transform="scale(0.015625)"/>
      <path id="DejaVuSans-20" transform="scale(0.015625)"/>
      <path id="DejaVuSans-4c" d="M 628 4666 
L 1259 4666 
L 1259 531 
L 3531 531 
L 3531 0 
L 628 0 
L 628 4666 
z
" transform="scale(0.015625)"/>
      <path id="DejaVuSans-61" d="M 2194 1759 
Q 1497 1759 1228 1600 
Q 959 1441 959 1056 
Q 959 750 1161 570 
Q 1363 391 1709 391 
Q 2188 391 2477 730 
Q 2766 1069 2766 1631 
L 2766 1759 
L 2194 1759 
z
M 3341 1997 
L 3341 0 
L 2766 0 
L 2766 531 
Q 2569 213 2275 61 
Q 1981 -91 1556 -91 
Q 1019 -91 701 211 
Q 384 513 384 1019 
Q 384 1609 779 1909 
Q 1175 2209 1959 2209 
L 2766 2209 
L 2766 2266 
Q 2766 2663 2505 2880 
Q 2244 3097 1772 3097 
Q 1472 3097 1187 3025 
Q 903 2953 641 2809 
L 641 3341 
Q 956 3463 1253 3523 
Q 1550 3584 1831 3584 
Q 2591 3584 2966 3190 
Q 3341 2797 3341 1997 
z
" transform="scale(0.015625)"/>
      <path id="DejaVuSans-79" d="M 2059 -325 
Q 1816 -950 1584 -1140 
Q 1353 -1331 966 -1331 
L 506 -1331 
L 506 -850 
L 844 -850 
Q 1081 -850 1212 -737 
Q 1344 -625 1503 -206 
L 1606 56 
L 191 3500 
L 800 3500 
L 1894 763 
L 2988 3500 
L 3597 3500 
L 2059 -325 
z
" transform="scale(0.015625)"/>
      <path id="DejaVuSans-6f" d="M 1959 3097 
Q 1497 3097 1228 2736 
Q 959 2375 959 1747 
Q 959 1119 1226 758 
Q 1494 397 1959 397 
Q 2419 397 2687 759 
Q 2956 1122 2956 1747 
Q 2956 2369 2687 2733 
Q 2419 3097 1959 3097 
z
M 1959 3584 
Q 2709 3584 3137 3096 
Q 3566 2609 3566 1747 
Q 3566 888 3137 398 
Q 2709 -91 1959 -91 
Q 1206 -91 779 398 
Q 353 888 353 1747 
Q 353 2609 779 3096 
Q 1206 3584 1959 3584 
z
" transform="scale(0.015625)"/>
      <path id="DejaVuSans-74" d="M 1172 4494 
L 1172 3500 
L 2356 3500 
L 2356 3053 
L 1172 3053 
L 1172 1153 
Q 1172 725 1289 603 
Q 1406 481 1766 481 
L 2356 481 
L 2356 0 
L 1766 0 
Q 1100 0 847 248 
Q 594 497 594 1153 
L 594 3053 
L 172 3053 
L 172 3500 
L 594 3500 
L 594 4494 
L 1172 4494 
z
" transform="scale(0.015625)"/>
      <path id="DejaVuSans-28" d="M 1984 4856 
Q 1566 4138 1362 3434 
Q 1159 2731 1159 2009 
Q 1159 1288 1364 580 
Q 1569 -128 1984 -844 
L 1484 -844 
Q 1016 -109 783 600 
Q 550 1309 550 2009 
Q 550 2706 781 3412 
Q 1013 4119 1484 4856 
L 1984 4856 
z
" transform="scale(0.015625)"/>
      <path id="DejaVuSans-43" d="M 4122 4306 
L 4122 3641 
Q 3803 3938 3442 4084 
Q 3081 4231 2675 4231 
Q 1875 4231 1450 3742 
Q 1025 3253 1025 2328 
Q 1025 1406 1450 917 
Q 1875 428 2675 428 
Q 3081 428 3442 575 
Q 3803 722 4122 1019 
L 4122 359 
Q 3791 134 3420 21 
Q 3050 -91 2638 -91 
Q 1578 -91 968 557 
Q 359 1206 359 2328 
Q 359 3453 968 4101 
Q 1578 4750 2638 4750 
Q 3056 4750 3426 4639 
Q 3797 4528 4122 4306 
z
" transform="scale(0.015625)"/>
      <path id="DejaVuSans-68" d="M 3513 2113 
L 3513 0 
L 2938 0 
L 2938 2094 
Q 2938 2591 2744 2837 
Q 2550 3084 2163 3084 
Q 1697 3084 1428 2787 
Q 1159 2491 1159 1978 
L 1159 0 
L 581 0 
L 581 4863 
L 1159 4863 
L 1159 2956 
Q 1366 3272 1645 3428 
Q 1925 3584 2291 3584 
Q 2894 3584 3203 3211 
Q 3513 2838 3513 2113 
z
" transform="scale(0.015625)"/>
      <path id="DejaVuSans-6e" d="M 3513 2113 
L 3513 0 
L 2938 0 
L 2938 2094 
Q 2938 2591 2744 2837 
Q 2550 3084 2163 3084 
Q 1697 3084 1428 2787 
Q 1159 2491 1159 1978 
L 1159 0 
L 581 0 
L 581 3500 
L 1159 3500 
L 1159 2956 
Q 1366 3272 1645 3428 
Q 1925 3584 2291 3584 
Q 2894 3584 3203 3211 
Q 3513 2838 3513 2113 
z
" transform="scale(0.015625)"/>
      <path id="DejaVuSans-6b" d="M 581 4863 
L 1159 4863 
L 1159 1991 
L 2875 3500 
L 3609 3500 
L 1753 1863 
L 3688 0 
L 2938 0 
L 1159 1709 
L 1159 0 
L 581 0 
L 581 4863 
z
" transform="scale(0.015625)"/>
      <path id="DejaVuSans-72" d="M 2631 2963 
Q 2534 3019 2420 3045 
Q 2306 3072 2169 3072 
Q 1681 3072 1420 2755 
Q 1159 2438 1159 1844 
L 1159 0 
L 581 0 
L 581 3500 
L 1159 3500 
L 1159 2956 
Q 1341 3275 1631 3429 
Q 1922 3584 2338 3584 
Q 2397 3584 2469 3576 
Q 2541 3569 2628 3553 
L 2631 2963 
z
" transform="scale(0.015625)"/>
      <path id="DejaVuSans-69" d="M 603 3500 
L 1178 3500 
L 1178 0 
L 603 0 
L 603 3500 
z
M 603 4863 
L 1178 4863 
L 1178 4134 
L 603 4134 
L 603 4863 
z
" transform="scale(0.015625)"/>
      <path id="DejaVuSans-67" d="M 2906 1791 
Q 2906 2416 2648 2759 
Q 2391 3103 1925 3103 
Q 1463 3103 1205 2759 
Q 947 2416 947 1791 
Q 947 1169 1205 825 
Q 1463 481 1925 481 
Q 2391 481 2648 825 
Q 2906 1169 2906 1791 
z
M 3481 434 
Q 3481 -459 3084 -895 
Q 2688 -1331 1869 -1331 
Q 1566 -1331 1297 -1286 
Q 1028 -1241 775 -1147 
L 775 -588 
Q 1028 -725 1275 -790 
Q 1522 -856 1778 -856 
Q 2344 -856 2625 -561 
Q 2906 -266 2906 331 
L 2906 616 
Q 2728 306 2450 153 
Q 2172 0 1784 0 
Q 1141 0 747 490 
Q 353 981 353 1791 
Q 353 2603 747 3093 
Q 1141 3584 1784 3584 
Q 2172 3584 2450 3431 
Q 2728 3278 2906 2969 
L 2906 3500 
L 3481 3500 
L 3481 434 
z
" transform="scale(0.015625)"/>
      <path id="DejaVuSans-29" d="M 513 4856 
L 1013 4856 
Q 1481 4119 1714 3412 
Q 1947 2706 1947 2009 
Q 1947 1309 1714 600 
Q 1481 -109 1013 -844 
L 513 -844 
Q 928 -128 1133 580 
Q 1338 1288 1338 2009 
Q 1338 2731 1133 3434 
Q 928 4138 513 4856 
z
" transform="scale(0.015625)"/>
     </defs>
     <use xlink:href="#DejaVuSans-46"/>
     <use xlink:href="#DejaVuSans-75" transform="translate(52.019531 0)"/>
     <use xlink:href="#DejaVuSans-6c" transform="translate(115.398438 0)"/>
     <use xlink:href="#DejaVuSans-6c" transform="translate(143.181641 0)"/>
     <use xlink:href="#DejaVuSans-20" transform="translate(170.964844 0)"/>
     <use xlink:href="#DejaVuSans-4c" transform="translate(202.751953 0)"/>
     <use xlink:href="#DejaVuSans-61" transform="translate(258.464844 0)"/>
     <use xlink:href="#DejaVuSans-79" transform="translate(319.744141 0)"/>
     <use xlink:href="#DejaVuSans-6f" transform="translate(378.923828 0)"/>
     <use xlink:href="#DejaVuSans-75" transform="translate(440.105469 0)"/>
     <use xlink:href="#DejaVuSans-74" transform="translate(503.484375 0)"/>
     <use xlink:href="#DejaVuSans-20" transform="translate(542.693359 0)"/>
     <use xlink:href="#DejaVuSans-28" transform="translate(574.480469 0)"/>
     <use xlink:href="#DejaVuSans-43" transform="translate(613.494141 0)"/>
     <use xlink:href="#DejaVuSans-68" transform="translate(683.318359 0)"/>
     <use xlink:href="#DejaVuSans-75" transform="translate(746.697266 0)"/>
     <use xlink:href="#DejaVuSans-6e" transform="translate(810.076172 0)"/>
     <use xlink:href="#DejaVuSans-6b" transform="translate(873.455078 0)"/>
     <use xlink:href="#DejaVuSans-20" transform="translate(931.365234 0)"/>
     <use xlink:href="#DejaVuSans-43" transform="translate(963.152344 0)"/>
     <use xlink:href="#DejaVuSans-6f" transform="translate(1032.976562 0)"/>
     <use xlink:href="#DejaVuSans-6c" transform="translate(1094.158203 0)"/>
     <use xlink:href="#DejaVuSans-6f" transform="translate(1121.941406 0)"/>
     <use xlink:href="#DejaVuSans-72" transform="translate(1183.123047 0)"/>
     <use xlink:href="#DejaVuSans-69" transform="translate(1224.236328 0)"/>
     <use xlink:href="#DejaVuSans-6e" transform="translate(1252.019531 0)"/>
     <use xlink:href="#DejaVuSans-67" transform="translate(1315.398438 0)"/>
     <use xlink:href="#DejaVuSans-29" transform="translate(1378.875 0)"/>
    </g>
   </g>
  </g>
  <g id="axes_2">
   <g id="PatchCollection_2">
    <path d="M 100.566948 661.281167 
L 97.968974 669.073608 
L 91.844233 664.18929 
z
" clip-path="url(#p772df27b33)" style="fill: #1f77b4; fill-opacity: 0.9; stroke: #000000; stroke-opacity: 0.9; stroke-width: 0.7"/>
    <path d="M 100.566949 661.281164 
L 91.844231 664.189288 
L 91.770761 664.130698 
L 82.577763 655.164101 
L 74.323233 645.326735 
L 73.301759 643.828509 
L 80.991314 636.138954 
L 82.031968 635.0983 
L 121.968614 597.088347 
z
" clip-path="url(#p772df27b33)" style="fill: #1f77b4; fill-opacity: 0.9; stroke: #000000; stroke-opacity: 0.9; stroke-width: 0.7"/>
    <path d="M 82.031909 635.098357 
L 73.301758 643.828507 
L 73.12761 643.573078 
z
" clip-path="url(#p772df27b33)" style="fill: #1f77b4; fill-opacity: 0.9; stroke: #000000; stroke-opacity: 0.9; stroke-width: 0.7"/>
    <path d="M 82.031966 635.098299 
L 73.127609 643.573077 
L 67.089207 634.716367 
L 60.947579 623.438448 
L 55.959389 611.605062 
L 52.174211 599.333816 
L 49.629664 586.746667 
L 48.351036 573.968711 
L 48.351036 569.336451 
L 122.932235 594.19803 
L 105.691905 611.43836 
z
" clip-path="url(#p772df27b33)" style="fill: #1f77b4; fill-opacity: 0.9; stroke: #000000; stroke-opacity: 0.9; stroke-width: 0.7"/>
    <path d="M 122.932233 594.198027 
L 48.351036 569.336449 
L 48.351036 561.126941 
L 49.629664 548.348985 
L 52.174211 535.761836 
L 55.078987 526.344781 
L 116.758744 588.024537 
z
" clip-path="url(#p772df27b33)" style="fill: #1f77b4; fill-opacity: 0.9; stroke: #000000; stroke-opacity: 0.9; stroke-width: 0.7"/>
    <path d="M 116.758743 588.024534 
L 55.078988 526.344779 
L 55.959389 523.49059 
L 59.478886 515.141355 
L 116.758785 572.422976 
z
" clip-path="url(#p772df27b33)" style="fill: #1f77b4; fill-opacity: 0.9; stroke: #000000; stroke-opacity: 0.9; stroke-width: 0.7"/>
    <path d="M 116.758785 572.422973 
L 59.478887 515.141353 
L 60.947579 511.657204 
L 67.089207 500.379285 
L 74.323233 489.768917 
L 82.577763 479.931551 
L 84.123444 478.423937 
L 116.758947 511.060422 
z
" clip-path="url(#p772df27b33)" style="fill: #1f77b4; fill-opacity: 0.9; stroke: #000000; stroke-opacity: 0.9; stroke-width: 0.7"/>
    <path d="M 116.758947 511.060419 
L 84.123445 478.423935 
L 91.770761 470.964954 
L 101.810861 462.958242 
L 112.59828 455.990988 
L 116.759099 453.85786 
z
" clip-path="url(#p772df27b33)" style="fill: #1f77b4; fill-opacity: 0.9; stroke: #000000; stroke-opacity: 0.9; stroke-width: 0.7"/>
    <path d="M 116.758949 511.060421 
L 116.759101 453.857859 
L 124.025809 450.132435 
L 135.979875 445.44081 
L 148.341674 441.962739 
L 160.988349 439.732789 
L 173.79421 438.773123 
L 186.631989 439.093277 
L 199.374096 440.69007 
L 211.893896 443.547633 
L 224.06696 447.637565 
L 233.852939 452.053167 
L 225.693035 455.300278 
L 132.858821 455.300096 
L 132.858821 455.300096 
L 132.858821 455.300096 
L 132.858821 455.300096 
L 132.858821 455.300096 
L 132.85882 455.300096 
L 132.85882 455.300096 
L 132.85882 455.300096 
L 132.85882 455.300096 
L 132.85882 455.300096 
L 132.85882 455.300096 
L 132.85882 455.300096 
L 132.85882 455.300096 
L 132.85882 455.300096 
L 132.85882 455.300096 
L 132.85882 455.300096 
L 132.85882 455.300097 
L 132.858734 487.683885 
L 132.858734 487.683885 
L 132.858734 487.683885 
L 132.858734 487.683885 
L 132.858734 487.683885 
L 132.858734 487.683886 
L 132.858734 487.683886 
L 132.858734 487.683886 
L 132.858734 487.683886 
L 132.858734 487.683886 
L 132.858734 487.683886 
L 132.858735 487.683886 
L 132.858735 487.683886 
L 132.858735 487.683886 
L 132.858735 487.683886 
L 132.858735 487.683886 
L 132.858735 487.683886 
L 185.503855 487.684069 
L 185.50377 520.067855 
L 132.858993 520.067673 
L 132.858993 520.067673 
L 132.858993 520.067673 
L 132.858992 520.067673 
L 132.858992 520.067673 
L 132.858992 520.067673 
L 132.858992 520.067673 
L 132.858992 520.067673 
L 132.858992 520.067673 
L 132.858992 520.067673 
L 132.858992 520.067673 
L 132.858992 520.067673 
L 132.858992 520.067673 
L 132.858992 520.067673 
L 132.858992 520.067673 
L 132.858992 520.067673 
L 132.858992 520.067674 
L 132.858906 552.451462 
L 132.858906 552.451462 
L 132.858906 552.451462 
L 132.858906 552.451462 
L 132.858906 552.451462 
L 132.858906 552.451462 
L 132.858906 552.451463 
L 132.858906 552.451463 
L 132.858906 552.451463 
L 132.858906 552.451463 
L 132.858906 552.451463 
L 132.858906 552.451463 
L 132.858906 552.451463 
L 132.858907 552.451463 
L 132.858907 552.451463 
L 132.858907 552.451463 
L 132.858907 552.451463 
L 162.236031 552.451542 
L 126.656527 588.031046 
L 126.656527 588.031046 
L 126.656527 588.031046 
L 126.656527 588.031046 
L 126.656527 588.031046 
L 126.656527 588.031046 
L 126.656527 588.031046 
L 126.656527 588.031046 
L 126.656527 588.031046 
L 126.656527 588.031046 
L 126.656527 588.031047 
L 126.656527 588.031047 
L 126.656527 588.031047 
L 126.656527 588.031047 
L 126.656527 588.031047 
L 126.656527 588.031047 
L 126.656527 588.031047 
L 127.877873 589.252392 
L 122.932237 594.198028 
L 116.758745 588.024536 
z
" clip-path="url(#p772df27b33)" style="fill: #1f77b4; fill-opacity: 0.9; stroke: #000000; stroke-opacity: 0.9; stroke-width: 0.7"/>
    <path d="M 128.606897 588.523368 
L 127.877874 589.252391 
L 126.65653 588.031046 
L 162.236034 552.451542 
L 162.236034 552.451542 
L 162.236034 552.451542 
L 237.893467 476.794109 
L 237.893467 476.794109 
L 237.893467 476.794109 
L 237.893467 476.794109 
L 237.893467 476.794109 
L 237.893467 476.794109 
L 237.893467 476.794109 
L 237.893467 476.794109 
L 237.893467 476.794108 
L 237.893467 454.14387 
L 240.315497 455.54223 
L 240.315497 584.662847 
L 240.315498 584.662847 
L 240.315498 584.662847 
L 240.315498 584.662848 
L 240.315498 584.662848 
L 240.315498 584.662848 
L 240.315498 584.662848 
L 240.315498 584.662848 
L 240.315498 584.662848 
L 240.315498 584.662848 
L 240.315498 584.662848 
L 240.315498 584.662848 
L 240.315498 584.662848 
L 240.315498 584.662848 
L 240.315498 584.662848 
L 240.315498 584.662848 
L 240.315499 584.662848 
L 266.627327 584.662848 
L 266.627327 584.662848 
L 266.627327 584.662848 
L 266.627327 584.662848 
L 266.627327 584.662848 
L 266.627327 584.662848 
L 266.627327 584.662848 
L 266.627327 584.662848 
L 266.627327 584.662848 
L 266.627327 584.662848 
L 266.627327 584.662848 
L 266.627328 584.662848 
L 266.627328 584.662848 
L 266.627328 584.662848 
L 266.627328 584.662847 
L 266.627328 584.662847 
L 266.627328 584.662847 
L 266.627328 475.049881 
L 266.948846 475.333623 
L 275.683468 484.747306 
L 283.437385 494.983898 
L 290.133536 505.941663 
L 295.705371 517.511698 
L 300.097515 529.579014 
L 303.266316 542.023682 
L 303.316667 542.357737 
L 270.92085 574.644623 
L 270.92085 574.644623 
L 270.92085 574.644623 
L 270.92085 574.644623 
L 270.92085 574.644623 
L 270.92085 574.644623 
L 270.92085 574.644624 
L 270.92085 574.644624 
L 270.92085 574.644624 
L 270.92085 574.644624 
L 270.92085 574.644624 
L 270.92085 574.644624 
L 270.92085 574.644624 
L 270.92085 574.644624 
L 270.92085 574.644624 
L 270.92085 574.644624 
L 270.92085 574.644624 
L 270.92085 574.644625 
L 270.92085 574.644625 
L 270.92085 574.644625 
L 270.920851 574.644625 
L 270.920851 574.644625 
L 270.920851 574.644625 
L 270.920851 574.644625 
L 270.920851 574.644625 
L 270.920851 574.644625 
L 270.920851 574.644625 
L 270.920851 574.644625 
L 270.920851 574.644625 
L 270.920851 574.644625 
L 270.920852 574.644625 
L 270.920852 574.644625 
L 270.920852 574.644624 
L 303.316668 542.35774 
L 305.180283 554.72202 
L 305.820392 567.547826 
L 305.180283 580.373633 
L 304.13887 587.282956 
L 286.663773 604.699293 
L 286.663773 604.699293 
L 286.663773 604.699294 
L 286.663773 604.699294 
L 286.663773 604.699294 
L 286.663773 604.699294 
L 286.663773 604.699294 
L 286.663773 604.699294 
L 286.663773 604.699294 
L 286.663773 604.699294 
L 286.663773 604.699294 
L 286.663773 604.699294 
L 286.663773 604.699294 
L 286.663773 604.699295 
L 286.663773 604.699295 
L 286.663773 604.699295 
L 286.663773 604.699295 
L 286.663773 604.699295 
L 286.663773 604.699295 
L 286.663773 604.699295 
L 286.663773 604.699295 
L 286.663773 604.699295 
L 286.663773 604.699295 
L 286.663773 604.699295 
L 286.663774 604.699295 
L 286.663774 604.699295 
L 286.663774 604.699295 
L 286.663774 604.699295 
L 286.663774 604.699295 
L 286.663774 604.699295 
L 286.663774 604.699295 
L 286.663774 604.699295 
L 286.663774 604.699295 
L 304.138869 587.28296 
L 303.266316 593.07197 
L 300.097515 605.516638 
L 295.705371 617.583954 
L 290.133536 629.153989 
L 283.437385 640.111754 
L 275.683468 650.348346 
L 266.948846 659.762029 
L 257.320329 668.259246 
L 246.893608 675.755548 
L 235.772309 682.176433 
L 224.06696 687.458087 
L 211.893896 691.54802 
L 199.374096 694.405582 
L 186.631989 696.002375 
L 173.79421 696.32253 
L 160.988349 695.362863 
L 156.685943 694.604233 
L 229.983901 621.306274 
L 229.983901 621.306274 
L 229.983901 621.306274 
L 229.983901 621.306274 
L 229.983901 621.306274 
L 229.983901 621.306274 
L 229.983901 621.306274 
L 229.983901 621.306273 
L 229.983901 621.306273 
L 229.983901 621.306273 
L 229.983901 621.306273 
L 229.983901 621.306273 
L 229.983901 621.306273 
L 229.983901 621.306273 
L 229.983901 621.306273 
L 229.983901 621.306273 
L 229.983901 621.306273 
L 207.621795 598.944167 
L 207.621795 598.944167 
L 207.621795 598.944167 
L 207.621795 598.944167 
L 207.621795 598.944167 
L 207.621795 598.944167 
L 207.621795 598.944166 
L 207.621795 598.944166 
L 207.621795 598.944166 
L 207.621794 598.944166 
L 207.621794 598.944166 
L 207.621794 598.944167 
L 207.621794 598.944167 
L 207.621794 598.944167 
L 207.621794 598.944167 
L 207.621794 598.944167 
L 207.621794 598.944167 
L 173.318384 633.247576 
L 173.318384 588.523368 
L 218.042595 588.523368 
L 218.042595 588.523368 
L 218.042595 588.523368 
L 218.042596 588.523368 
L 218.042596 588.523368 
L 218.042596 588.523368 
L 218.042596 588.523368 
L 218.042596 588.523368 
L 218.042596 588.523368 
L 218.042596 588.523367 
L 218.042596 588.523367 
L 218.042596 588.523367 
L 218.042596 588.523367 
L 218.042596 588.523367 
L 218.042596 588.523367 
L 218.042596 588.523367 
L 218.042596 588.523367 
L 218.042596 588.523367 
L 218.042596 588.523367 
L 218.042596 588.523367 
L 218.042596 588.523366 
L 218.042596 588.523366 
L 218.042596 588.523366 
L 218.042596 588.523366 
L 218.042596 588.523366 
L 218.042596 588.523366 
L 218.042596 588.523366 
L 218.042596 588.523366 
L 218.042596 588.523366 
L 218.042596 588.523366 
L 218.042595 588.523366 
L 218.042595 588.523366 
L 218.042595 588.523366 
L 173.318384 588.523366 
L 173.318384 543.799155 
L 173.318384 543.799155 
L 173.318384 543.799155 
L 173.318384 543.799155 
L 173.318384 543.799155 
L 173.318384 543.799155 
L 173.318384 543.799154 
L 173.318384 543.799154 
L 173.318384 543.799154 
L 173.318384 543.799154 
L 173.318384 543.799154 
L 173.318384 543.799154 
L 173.318384 543.799154 
L 173.318384 543.799154 
L 173.318384 543.799154 
L 173.318384 543.799154 
L 173.318383 543.799154 
L 173.318383 543.799154 
L 173.318383 543.799154 
L 173.318383 543.799154 
L 173.318383 543.799154 
L 173.318383 543.799154 
L 173.318383 543.799154 
L 173.318383 543.799154 
L 173.318383 543.799154 
L 173.318383 543.799154 
L 173.318383 543.799154 
L 173.318383 543.799155 
L 173.318383 543.799155 
L 173.318382 543.799155 
L 173.318382 543.799155 
L 173.318382 543.799155 
L 173.318382 543.799155 
L 173.318382 588.523366 
L 128.606902 588.523366 
L 152.637716 564.492552 
L 152.637716 564.492552 
L 152.637716 564.492552 
L 152.637716 564.492552 
L 152.637716 564.492552 
L 152.637716 564.492552 
L 152.637716 564.492552 
L 152.637716 564.492552 
L 152.637716 564.492551 
L 152.637716 564.492551 
L 152.637716 564.492551 
L 152.637716 564.492551 
L 152.637716 564.492551 
L 152.637716 564.492551 
L 152.637716 564.492551 
L 152.637716 564.492551 
L 152.637716 564.492551 
L 152.637716 564.492551 
L 152.637716 564.492551 
L 152.637716 564.492551 
L 152.637715 564.49255 
L 152.637715 564.49255 
L 152.637715 564.49255 
L 152.637715 564.49255 
L 152.637715 564.49255 
L 152.637715 564.49255 
L 152.637715 564.49255 
L 152.637715 564.49255 
L 152.637715 564.49255 
L 152.637715 564.492551 
L 152.637715 564.492551 
L 152.637714 564.492551 
L 152.637714 564.492551 
L 144.892621 572.237644 
L 128.606899 588.523366 
L 128.594172 588.523366 
L 128.594172 588.523366 
L 128.594171 588.523366 
L 128.594171 588.523366 
L 128.594171 588.523366 
L 128.594171 588.523366 
L 128.594171 588.523366 
L 128.594171 588.523366 
L 128.594171 588.523366 
L 128.594171 588.523366 
L 128.594171 588.523366 
L 128.594171 588.523366 
L 128.594171 588.523366 
L 128.594171 588.523367 
L 128.594171 588.523367 
L 128.594171 588.523367 
L 128.594171 588.523367 
L 128.594171 588.523367 
L 128.594171 588.523367 
L 128.594171 588.523367 
L 128.594171 588.523367 
L 128.594171 588.523367 
L 128.594171 588.523367 
L 128.594171 588.523367 
L 128.594171 588.523368 
L 128.594171 588.523368 
L 128.594171 588.523368 
L 128.594171 588.523368 
L 128.594171 588.523368 
L 128.594171 588.523368 
L 128.594171 588.523368 
L 128.594172 588.523368 
L 128.594172 588.523368 
z
" clip-path="url(#p772df27b33)" style="fill: #1f77b4; fill-opacity: 0.9; stroke: #000000; stroke-opacity: 0.9; stroke-width: 0.7"/>
    <path d="M 127.877876 589.252392 
L 128.6069 588.523368 
L 173.318382 588.523368 
L 173.318382 633.247578 
L 172.595722 633.970239 
z
" clip-path="url(#p772df27b33)" style="fill: #1f77b4; fill-opacity: 0.9; stroke: #000000; stroke-opacity: 0.9; stroke-width: 0.7"/>
    <path d="M 122.932239 594.198029 
L 127.877874 589.252394 
L 172.595721 633.97024 
L 167.650085 638.915876 
z
" clip-path="url(#p772df27b33)" style="fill: #1f77b4; fill-opacity: 0.9; stroke: #000000; stroke-opacity: 0.9; stroke-width: 0.7"/>
    <path d="M 167.430177 639.135786 
L 207.621795 598.944169 
L 229.983899 621.306273 
L 156.68594 694.604232 
L 148.341674 693.132913 
L 135.979875 689.654842 
L 124.025809 684.963217 
L 122.423964 684.141999 
z
" clip-path="url(#p772df27b33)" style="fill: #1f77b4; fill-opacity: 0.9; stroke: #000000; stroke-opacity: 0.9; stroke-width: 0.7"/>
    <path d="M 167.430175 639.135786 
L 122.423963 684.141998 
L 112.59828 679.104665 
L 101.810861 672.13741 
L 97.968976 669.07361 
L 100.56695 661.281166 
L 167.320238 639.025848 
z
" clip-path="url(#p772df27b33)" style="fill: #1f77b4; fill-opacity: 0.9; stroke: #000000; stroke-opacity: 0.9; stroke-width: 0.7"/>
    <path d="M 82.032026 635.098242 
L 122.932235 594.198033 
L 121.968616 597.088343 
z
" clip-path="url(#p772df27b33)" style="fill: #1f77b4; fill-opacity: 0.9; stroke: #000000; stroke-opacity: 0.9; stroke-width: 0.7"/>
    <path d="M 123.71787 595.423479 
L 123.71787 595.423479 
L 123.71787 595.423479 
L 123.71787 595.423479 
L 121.968619 597.08834 
L 122.932238 594.198031 
L 167.650083 638.915877 
L 167.320238 639.025846 
L 123.717871 595.423479 
L 123.717871 595.423479 
L 123.717871 595.423479 
L 123.717871 595.423479 
L 123.717871 595.423479 
L 123.717871 595.423479 
L 123.717871 595.423479 
L 123.717871 595.423479 
L 123.717871 595.423479 
L 123.717871 595.423479 
L 123.717871 595.423479 
L 123.71787 595.423479 
L 123.71787 595.423479 
z
" clip-path="url(#p772df27b33)" style="fill: #1f77b4; fill-opacity: 0.9; stroke: #000000; stroke-opacity: 0.9; stroke-width: 0.7"/>
    <path d="M 100.566951 661.281163 
L 121.968617 597.088344 
L 123.717871 595.423481 
L 167.320236 639.025847 
z
" clip-path="url(#p772df27b33)" style="fill: #1f77b4; fill-opacity: 0.9; stroke: #000000; stroke-opacity: 0.9; stroke-width: 0.7"/>
    <path d="M 246.893608 459.340104 
L 257.320329 466.836406 
L 266.627326 475.049879 
L 266.627326 584.662846 
L 240.3155 584.662846 
L 240.3155 455.542231 
z
" clip-path="url(#p772df27b33)" style="fill: #1f77b4; fill-opacity: 0.9; stroke: #000000; stroke-opacity: 0.9; stroke-width: 0.7"/>
    <path d="M 132.858822 455.300098 
L 225.693035 455.30028 
L 225.693036 455.30028 
L 225.693036 455.30028 
L 225.693036 455.30028 
L 225.693036 455.30028 
L 233.852942 452.053168 
L 235.772309 452.919219 
L 237.893465 454.143869 
L 237.893465 476.794108 
L 162.236033 552.45154 
L 132.858908 552.451461 
L 132.858994 520.067675 
L 185.503771 520.067857 
L 185.503771 520.067857 
L 185.503771 520.067857 
L 185.503771 520.067857 
L 185.503771 520.067857 
L 185.503771 520.067857 
L 185.503771 520.067857 
L 185.503771 520.067857 
L 185.503771 520.067857 
L 185.503771 520.067857 
L 185.503771 520.067857 
L 185.503771 520.067857 
L 185.503772 520.067856 
L 185.503772 520.067856 
L 185.503772 520.067856 
L 185.503772 520.067856 
L 185.503772 520.067856 
L 185.503857 487.684068 
L 185.503857 487.684068 
L 185.503857 487.684067 
L 185.503857 487.684067 
L 185.503857 487.684067 
L 185.503857 487.684067 
L 185.503857 487.684067 
L 185.503857 487.684067 
L 185.503857 487.684067 
L 185.503857 487.684067 
L 185.503857 487.684067 
L 185.503857 487.684067 
L 185.503857 487.684067 
L 185.503857 487.684067 
L 185.503857 487.684067 
L 185.503857 487.684067 
L 185.503856 487.684067 
L 132.858736 487.683884 
z
" clip-path="url(#p772df27b33)" style="fill: #1f77b4; fill-opacity: 0.9; stroke: #000000; stroke-opacity: 0.9; stroke-width: 0.7"/>
   </g>
   <g id="text_2">
    <!-- Chunk 0 -->
    <g transform="translate(152.289777 419.895652) scale(0.12 -0.12)">
     <defs>
      <path id="DejaVuSans-30" d="M 2034 4250 
Q 1547 4250 1301 3770 
Q 1056 3291 1056 2328 
Q 1056 1369 1301 889 
Q 1547 409 2034 409 
Q 2525 409 2770 889 
Q 3016 1369 3016 2328 
Q 3016 3291 2770 3770 
Q 2525 4250 2034 4250 
z
M 2034 4750 
Q 2819 4750 3233 4129 
Q 3647 3509 3647 2328 
Q 3647 1150 3233 529 
Q 2819 -91 2034 -91 
Q 1250 -91 836 529 
Q 422 1150 422 2328 
Q 422 3509 836 4129 
Q 1250 4750 2034 4750 
z
" transform="scale(0.015625)"/>
     </defs>
     <use xlink:href="#DejaVuSans-43"/>
     <use xlink:href="#DejaVuSans-68" transform="translate(69.824219 0)"/>
     <use xlink:href="#DejaVuSans-75" transform="translate(133.203125 0)"/>
     <use xlink:href="#DejaVuSans-6e" transform="translate(196.582031 0)"/>
     <use xlink:href="#DejaVuSans-6b" transform="translate(259.960938 0)"/>
     <use xlink:href="#DejaVuSans-20" transform="translate(317.871094 0)"/>
     <use xlink:href="#DejaVuSans-30" transform="translate(349.658203 0)"/>
    </g>
   </g>
  </g>
  <g id="axes_3"/>
  <g id="axes_4"/>
  <g id="text_3">
   <!-- Layout 5 → 19 Regions, 1 Chunk -->
   <g transform="translate(198.698437 51.196875) scale(0.2 -0.2)">
    <defs>
     <path id="DejaVuSans-35" d="M 691 4666 
L 3169 4666 
L 3169 4134 
L 1269 4134 
L 1269 2991 
Q 1406 3038 1543 3061 
Q 1681 3084 1819 3084 
Q 2600 3084 3056 2656 
Q 3513 2228 3513 1497 
Q 3513 744 3044 326 
Q 2575 -91 1722 -91 
Q 1428 -91 1123 -41 
Q 819 9 494 109 
L 494 744 
Q 775 591 1075 516 
Q 1375 441 1709 441 
Q 2250 441 2565 725 
Q 2881 1009 2881 1497 
Q 2881 1984 2565 2268 
Q 2250 2553 1709 2553 
Q 1456 2553 1204 2497 
Q 953 2441 691 2322 
L 691 4666 
z
" transform="scale(0.015625)"/>
     <path id="DejaVuSans-2192" d="M 5050 2147 
L 5050 1866 
L 3822 638 
L 3447 1013 
L 4175 1741 
L 366 1741 
L 366 2272 
L 4175 2272 
L 3447 3000 
L 3822 3375 
L 5050 2147 
z
" transform="scale(0.015625)"/>
     <path id="DejaVuSans-31" d="M 794 531 
L 1825 531 
L 1825 4091 
L 703 3866 
L 703 4441 
L 1819 4666 
L 2450 4666 
L 2450 531 
L 3481 531 
L 3481 0 
L 794 0 
L 794 531 
z
" transform="scale(0.015625)"/>
     <path id="DejaVuSans-39" d="M 703 97 
L 703 672 
Q 941 559 1184 500 
Q 1428 441 1663 441 
Q 2288 441 2617 861 
Q 2947 1281 2994 2138 
Q 2813 1869 2534 1725 
Q 2256 1581 1919 1581 
Q 1219 1581 811 2004 
Q 403 2428 403 3163 
Q 403 3881 828 4315 
Q 1253 4750 1959 4750 
Q 2769 4750 3195 4129 
Q 3622 3509 3622 2328 
Q 3622 1225 3098 567 
Q 2575 -91 1691 -91 
Q 1453 -91 1209 -44 
Q 966 3 703 97 
z
M 1959 2075 
Q 2384 2075 2632 2365 
Q 2881 2656 2881 3163 
Q 2881 3666 2632 3958 
Q 2384 4250 1959 4250 
Q 1534 4250 1286 3958 
Q 1038 3666 1038 3163 
Q 1038 2656 1286 2365 
Q 1534 2075 1959 2075 
z
" transform="scale(0.015625)"/>
     <path id="DejaVuSans-52" d="M 2841 2188 
Q 3044 2119 3236 1894 
Q 3428 1669 3622 1275 
L 4263 0 
L 3584 0 
L 2988 1197 
Q 2756 1666 2539 1819 
Q 2322 1972 1947 1972 
L 1259 1972 
L 1259 0 
L 628 0 
L 628 4666 
L 2053 4666 
Q 2853 4666 3247 4331 
Q 3641 3997 3641 3322 
Q 3641 2881 3436 2590 
Q 3231 2300 2841 2188 
z
M 1259 4147 
L 1259 2491 
L 2053 2491 
Q 2509 2491 2742 2702 
Q 2975 2913 2975 3322 
Q 2975 3731 2742 3939 
Q 2509 4147 2053 4147 
L 1259 4147 
z
" transform="scale(0.015625)"/>
     <path id="DejaVuSans-65" d="M 3597 1894 
L 3597 1613 
L 953 1613 
Q 991 1019 1311 708 
Q 1631 397 2203 397 
Q 2534 397 2845 478 
Q 3156 559 3463 722 
L 3463 178 
Q 3153 47 2828 -22 
Q 2503 -91 2169 -91 
Q 1331 -91 842 396 
Q 353 884 353 1716 
Q 353 2575 817 3079 
Q 1281 3584 2069 3584 
Q 2775 3584 3186 3129 
Q 3597 2675 3597 1894 
z
M 3022 2063 
Q 3016 2534 2758 2815 
Q 2500 3097 2075 3097 
Q 1594 3097 1305 2825 
Q 1016 2553 972 2059 
L 3022 2063 
z
" transform="scale(0.015625)"/>
     <path id="DejaVuSans-73" d="M 2834 3397 
L 2834 2853 
Q 2591 2978 2328 3040 
Q 2066 3103 1784 3103 
Q 1356 3103 1142 2972 
Q 928 2841 928 2578 
Q 928 2378 1081 2264 
Q 1234 2150 1697 2047 
L 1894 2003 
Q 2506 1872 2764 1633 
Q 3022 1394 3022 966 
Q 3022 478 2636 193 
Q 2250 -91 1575 -91 
Q 1294 -91 989 -36 
Q 684 19 347 128 
L 347 722 
Q 666 556 975 473 
Q 1284 391 1588 391 
Q 1994 391 2212 530 
Q 2431 669 2431 922 
Q 2431 1156 2273 1281 
Q 2116 1406 1581 1522 
L 1381 1569 
Q 847 1681 609 1914 
Q 372 2147 372 2553 
Q 372 3047 722 3315 
Q 1072 3584 1716 3584 
Q 2034 3584 2315 3537 
Q 2597 3491 2834 3397 
z
" transform="scale(0.015625)"/>
     <path id="DejaVuSans-2c" d="M 750 794 
L 1409 794 
L 1409 256 
L 897 -744 
L 494 -744 
L 750 256 
L 750 794 
z
" transform="scale(0.015625)"/>
    </defs>
    <use xlink:href="#DejaVuSans-4c"/>
    <use xlink:href="#DejaVuSans-61" transform="translate(55.712891 0)"/>
    <use xlink:href="#DejaVuSans-79" transform="translate(116.992188 0)"/>
    <use xlink:href="#DejaVuSans-6f" transform="translate(176.171875 0)"/>
    <use xlink:href="#DejaVuSans-75" transform="translate(237.353516 0)"/>
    <use xlink:href="#DejaVuSans-74" transform="translate(300.732422 0)"/>
    <use xlink:href="#DejaVuSans-20" transform="translate(339.941406 0)"/>
    <use xlink:href="#DejaVuSans-35" transform="translate(371.728516 0)"/>
    <use xlink:href="#DejaVuSans-20" transform="translate(435.351562 0)"/>
    <use xlink:href="#DejaVuSans-2192" transform="translate(467.138672 0)"/>
    <use xlink:href="#DejaVuSans-20" transform="translate(550.927734 0)"/>
    <use xlink:href="#DejaVuSans-31" transform="translate(582.714844 0)"/>
    <use xlink:href="#DejaVuSans-39" transform="translate(646.337891 0)"/>
    <use xlink:href="#DejaVuSans-20" transform="translate(709.960938 0)"/>
    <use xlink:href="#DejaVuSans-52" transform="translate(741.748047 0)"/>
    <use xlink:href="#DejaVuSans-65" transform="translate(806.730469 0)"/>
    <use xlink:href="#DejaVuSans-67" transform="translate(868.253906 0)"/>
    <use xlink:href="#DejaVuSans-69" transform="translate(931.730469 0)"/>
    <use xlink:href="#DejaVuSans-6f" transform="translate(959.513672 0)"/>
    <use xlink:href="#DejaVuSans-6e" transform="translate(1020.695312 0)"/>
    <use xlink:href="#DejaVuSans-73" transform="translate(1084.074219 0)"/>
    <use xlink:href="#DejaVuSans-2c" transform="translate(1136.173828 0)"/>
    <use xlink:href="#DejaVuSans-20" transform="translate(1167.960938 0)"/>
    <use xlink:href="#DejaVuSans-31" transform="translate(1199.748047 0)"/>
    <use xlink:href="#DejaVuSans-20" transform="translate(1263.371094 0)"/>
    <use xlink:href="#DejaVuSans-43" transform="translate(1295.158203 0)"/>
    <use xlink:href="#DejaVuSans-68" transform="translate(1364.982422 0)"/>
    <use xlink:href="#DejaVuSans-75" transform="translate(1428.361328 0)"/>
    <use xlink:href="#DejaVuSans-6e" transform="translate(1491.740234 0)"/>
    <use xlink:href="#DejaVuSans-6b" transform="translate(1555.119141 0)"/>
   </g>
  </g>
 </g>
 <defs>
  <clipPath id="pb438160fb5">
   <rect x="35.477568" y="57.6" width="283.216292" height="283.304348"/>
  </clipPath>
  <clipPath id="p772df27b33">
   <rect x="35.477568" y="425.895652" width="283.216292" height="283.304348"/>
  </clipPath>
 </defs>
</svg>
